<?xml version="1.0" encoding="utf-8"?>
<!-- Generator: Adobe Illustrator 26.5.0, SVG Export Plug-In . SVG Version: 6.00 Build 0)  -->
<svg version="1.1" id="Layer_1" xmlns="http://www.w3.org/2000/svg" xmlns:xlink="http://www.w3.org/1999/xlink" x="0px" y="0px"
	 viewBox="0 0 396 68.7" style="enable-background:new 0 0 396 68.7;" xml:space="preserve">
<style type="text/css">
	.st0{fill:#F4521A;stroke:#000000;stroke-width:0.9231;stroke-miterlimit:10;}
	.st1{fill:#4038BC;}
</style>
<g>
	<g>
		<rect x="2.5" y="1.9" class="st0" width="8" height="8"/>
		<rect x="15.7" y="1.9" class="st0" width="8" height="8"/>
		<rect x="28.9" y="1.9" class="st0" width="8" height="8"/>
		<rect x="42.1" y="1.9" class="st0" width="8" height="8"/>
		<rect x="55.3" y="1.9" class="st0" width="8" height="8"/>
		<rect x="68.5" y="1.9" class="st0" width="8" height="8"/>
		<rect x="81.7" y="1.9" class="st0" width="8" height="8"/>
		<rect x="94.9" y="1.9" class="st0" width="8" height="8"/>
		<rect x="108.1" y="1.9" class="st0" width="8" height="8"/>
		<rect x="121.3" y="1.9" class="st0" width="8" height="8"/>
		<rect x="134.5" y="1.9" class="st0" width="8" height="8"/>
		<rect x="147.7" y="1.9" class="st0" width="8" height="8"/>
		<rect x="161" y="1.9" class="st0" width="8" height="8"/>
		<rect x="174.2" y="1.9" class="st0" width="8" height="8"/>
		<rect x="187.4" y="1.9" class="st0" width="8" height="8"/>
		<rect x="200.6" y="1.9" class="st0" width="8" height="8"/>
		<rect x="213.8" y="1.9" class="st0" width="8" height="8"/>
		<rect x="227" y="1.9" class="st0" width="8" height="8"/>
		<rect x="240.2" y="1.9" class="st0" width="8" height="8"/>
		<rect x="253.4" y="1.9" class="st0" width="8" height="8"/>
		<rect x="266.6" y="1.9" class="st0" width="8" height="8"/>
		<rect x="279.8" y="1.9" class="st0" width="8" height="8"/>
		<rect x="293" y="1.9" class="st0" width="8" height="8"/>
		<rect x="306.2" y="1.9" class="st0" width="8" height="8"/>
		<rect x="319.4" y="1.9" class="st0" width="8" height="8"/>
		<rect x="332.6" y="1.9" class="st0" width="8" height="8"/>
		<rect x="345.8" y="1.9" class="st0" width="8" height="8"/>
		<rect x="359.1" y="1.9" class="st0" width="8" height="8"/>
		<rect x="372.3" y="1.9" class="st0" width="8" height="8"/>
		<rect x="385.5" y="1.9" class="st0" width="8" height="8"/>
	</g>
	<g>
		<path class="st1" d="M49.4,20.6l-1.1,8.6c-4.2-1.1-8.3-1.7-12.3-1.7c-6.9,0-12.4,1.7-16.7,5s-6.4,7.6-6.4,12.8c0,4,1.3,7.1,4,9.4
			c2.7,2.2,6.3,3.4,10.7,3.4c2.3,0,4.7-0.3,6.9-0.9l1.2-8.2h-8.5l1-7.3h18.3l-3.3,23.7c-3.7,0.9-8.5,1.4-14.4,1.4
			c-8.4,0-14.9-1.9-19.4-5.8c-4.6-4.2-6.9-9.3-6.9-15.4c0-7.3,2.9-13.6,8.8-18.8S25.4,19,35.9,19C41,18.9,45.5,19.5,49.4,20.6z"/>
		<path class="st1" d="M81,18.9l8.2,47H79l-1.4-10.1H63.1l-4.5,10.1H47.8l22.8-47C70.6,18.9,81,18.9,81,18.9z M66,49.2h10.7
			l-2.4-20.5L66,49.2z"/>
		<path class="st1" d="M150.8,19.5l2.2,46.4h-9.6l-1.5-31.4l-17.2,31.4H120l-8.3-32.2L101.2,66h-9.9l15.2-46.4h10.8l7.5,29.2
			l15.6-29.2L150.8,19.5L150.8,19.5z"/>
		<path class="st1" d="M195,19.5l-1.1,7.8h-19.1l-1.5,10.9h16.8L189,46h-16.8l-1.7,12.2h24.1l-1.1,7.7h-34l6.5-46.4H195z"/>
		<path class="st1" d="M224.7,19.5h14.7c5,0,8.9,1,11.5,3s3.9,4.8,3.9,8.2c0,4.6-2.2,8-6.7,10.3c2.7,0.8,4.8,2.3,6.3,4.4
			c1.5,2.1,2.3,4.4,2.3,7c0,3.5-1.4,6.7-4.3,9.4c-2.8,2.7-6.7,4.1-11.6,4.1h-22.7L224.7,19.5z M230.9,45.2l-1.9,13h9.4
			c2.7,0,4.7-0.6,6.1-1.8c1.4-1.2,2.1-2.9,2.1-5c0-1.9-0.8-3.5-2.3-4.5c-1.6-1.1-3.7-1.6-6.3-1.6h-7.1V45.2z M233.6,27.3L232,37.5
			h6.7c2.1,0,3.7-0.5,4.9-1.5c1.1-1,1.7-2.3,1.7-4c0-3.1-2.2-4.7-6.5-4.7C238.8,27.3,233.6,27.3,233.6,27.3z"/>
		<path class="st1" d="M309.3,19.5l-4.1,28.9c-1.7,12.1-8.8,18.1-21.3,18.1c-6.6,0-11.7-1.5-15.2-4.5s-5.3-7.1-5.3-12.4
			c0-1.2,0.1-2.4,0.3-3.7l3.8-26.4h9.9l-3.8,26.3c-0.1,0.9-0.2,1.7-0.2,2.5c0,3.2,1,5.6,2.9,7.2c1.9,1.6,4.5,2.4,7.6,2.4
			c3.2,0,5.8-0.9,7.8-2.6c2.1-1.8,3.3-4.3,3.8-7.7l4-28.1C299.5,19.5,309.3,19.5,309.3,19.5z"/>
		<path class="st1" d="M344,22.6l-1.4,8.2c-1.7-1.2-3.6-2.2-5.8-2.9c-2.2-0.8-4.1-1.1-5.7-1.1c-1.9,0-3.4,0.5-4.7,1.4
			s-1.9,2.2-1.9,3.7c0,0.9,0.3,1.8,1,2.7s2.9,2.5,6.6,4.7s6.2,4.4,7.5,6.5s1.9,4.4,1.9,6.7c0,4.1-1.4,7.5-4.3,10.2
			c-2.8,2.7-6.7,4-11.5,4c-6.1,0-11.4-1.5-15.8-4.4l1.5-8.1c2,1.4,4.2,2.6,6.7,3.4c2.4,0.9,4.6,1.3,6.5,1.3c2,0,3.6-0.5,4.9-1.4
			c1.2-0.9,1.8-2.2,1.8-3.7c0-1.1-0.4-2.1-1.2-3.2c-0.8-1.1-3-2.8-6.8-5.1c-3.7-2.3-6.2-4.4-7.4-6.4c-1.2-1.9-1.8-4-1.8-6
			c0-4,1.6-7.3,4.7-10s7-4,11.7-4C335.5,18.9,339.9,20.1,344,22.6z"/>
		<path class="st1" d="M354.1,19.5h15.4c7.8,0,13.7,2.1,17.8,6.3c4.1,4.2,6.2,9.6,6.2,16.3c0,6.8-2.1,12.5-6.3,17
			c-4.2,4.5-9.4,6.8-15.6,6.8h-24L354.1,19.5z M362.9,27.3l-4.3,30.9h9.2c4.8,0,8.6-1.5,11.4-4.6c2.7-3,4.1-6.9,4.1-11.6
			c0-4.3-1.4-7.9-4.2-10.6c-2.8-2.7-6.6-4.1-11.4-4.1H362.9z"/>
	</g>
</g>
</svg>
